<?xml version="1.0" encoding="iso-8859-1"?>
<!-- Generator: Adobe Illustrator 19.0.0, SVG Export Plug-In . SVG Version: 6.00 Build 0)  -->
<svg version="1.1" id="Capa_1" xmlns="http://www.w3.org/2000/svg" xmlns:xlink="http://www.w3.org/1999/xlink" x="0px" y="0px"
	 viewBox="0 0 512 512" style="enable-background:new 0 0 512 512;" xml:space="preserve">
<g>
	<g>
		<g>
			<path d="M256,0C114.844,0,0,114.844,0,256s114.844,256,256,256s256-114.844,256-256S397.156,0,256,0z M256,490.667
				C126.604,490.667,21.333,385.396,21.333,256S126.604,21.333,256,21.333S490.667,126.604,490.667,256S385.396,490.667,256,490.667
				z"/>
			<path d="M256,64C150.135,64,64,150.135,64,256s86.135,192,192,192s192-86.135,192-192S361.865,64,256,64z M256,426.667
				c-94.104,0-170.667-76.563-170.667-170.667S161.896,85.333,256,85.333S426.667,161.896,426.667,256S350.104,426.667,256,426.667z
				"/>
			<path d="M256,128c-70.583,0-128,57.417-128,128s57.417,128,128,128s128-57.417,128-128S326.583,128,256,128z M351.535,209.49
				h-62.493l-18.12-58.647C306.509,155.893,336.292,178.332,351.535,209.49z M270.99,223.302c1.375,4.469,5.51,7.521,10.188,7.521
				h49.948l-40.865,31.208c-3.552,2.719-5.031,7.354-3.708,11.625l15.323,49.604l-39.396-30.104
				c-1.917-1.458-4.198-2.188-6.479-2.188s-4.563,0.729-6.479,2.188l-39.396,30.104l15.323-49.604
				c1.323-4.271-0.156-8.906-3.708-11.625l-40.865-31.208h49.948c4.677,0,8.813-3.052,10.188-7.521l14.99-48.5L270.99,223.302z
				 M241.078,150.842l-18.12,58.647h-62.493C175.708,178.332,205.491,155.893,241.078,150.842z M184.333,334.461
				c-21.353-19.52-35-47.322-35-78.461c0-7.126,0.764-14.072,2.104-20.81l51.438,39.279L184.333,334.461z M256,362.667
				c-17.038,0-32.928-4.387-47.229-11.522L256,315.063l47.229,36.082C288.928,358.28,273.038,362.667,256,362.667z M327.667,334.461
				l-18.542-59.992l51.438-39.279c1.34,6.738,2.104,13.684,2.104,20.81C362.667,287.139,349.02,314.941,327.667,334.461z"/>
		</g>
	</g>
</g>
<g>
</g>
<g>
</g>
<g>
</g>
<g>
</g>
<g>
</g>
<g>
</g>
<g>
</g>
<g>
</g>
<g>
</g>
<g>
</g>
<g>
</g>
<g>
</g>
<g>
</g>
<g>
</g>
<g>
</g>
</svg>
