<?xml version="1.0" encoding="iso-8859-1"?>
<!-- Generator: Adobe Illustrator 19.0.0, SVG Export Plug-In . SVG Version: 6.00 Build 0)  -->
<svg version="1.1" id="Capa_1" xmlns="http://www.w3.org/2000/svg" xmlns:xlink="http://www.w3.org/1999/xlink" x="0px" y="0px"
	 viewBox="0 0 512 512" style="enable-background:new 0 0 512 512;" xml:space="preserve">
<g>
	<g>
		<path d="M444.875,88.458l-42.654-42.654c-1.931-1.938-4.6-3.138-7.555-3.138h-96V32c0-17.646-14.354-32-32-32h-21.333
			c-17.646,0-32,14.354-32,32v10.667h-96c-2.954,0-5.624,1.201-7.555,3.138L67.125,88.458c-2,2-3.125,4.708-3.125,7.542v128
			c0,2.833,1.125,5.542,3.125,7.542l42.654,42.654c1.931,1.938,4.6,3.138,7.555,3.138h96V480c0,17.646,14.354,32,32,32h21.333
			c17.646,0,32-14.354,32-32V277.333h96c2.954,0,5.624-1.201,7.555-3.138l42.654-42.654c2-2,3.125-4.708,3.125-7.542V96
			C448,93.167,446.875,90.458,444.875,88.458z M106.667,240.917l-21.333-21.333V100.417l21.333-21.333V240.917z M234.667,32
			c0-5.885,4.792-10.667,10.667-10.667h21.333c5.875,0,10.667,4.781,10.667,10.667v10.667h-42.667V32z M277.333,480
			c0,5.885-4.792,10.667-10.667,10.667h-21.333c-5.875,0-10.667-4.781-10.667-10.667v-22.736l15.417,10.277
			c1.792,1.198,3.854,1.792,5.917,1.792s4.125-0.594,5.917-1.792l15.417-10.277V480z M277.333,431.625L256,445.844l-21.333-14.219
			v-38.361l15.417,10.277c1.792,1.198,3.854,1.792,5.917,1.792s4.125-0.594,5.917-1.792l15.417-10.277V431.625z M277.333,367.625
			L256,381.844l-21.333-14.219v-38.361l15.417,10.277c1.792,1.198,3.854,1.792,5.917,1.792s4.125-0.594,5.917-1.792l15.417-10.277
			V367.625z M277.333,303.625L256,317.844l-21.333-14.219v-26.292h42.667V303.625z M384,256H128V64h256V256z M426.667,219.583
			l-21.333,21.333V79.083l21.333,21.333V219.583z"/>
	</g>
</g>
<g>
</g>
<g>
</g>
<g>
</g>
<g>
</g>
<g>
</g>
<g>
</g>
<g>
</g>
<g>
</g>
<g>
</g>
<g>
</g>
<g>
</g>
<g>
</g>
<g>
</g>
<g>
</g>
<g>
</g>
</svg>
